<?xml version="1.0" encoding="utf-8"?>
<!-- Generator: Adobe Illustrator 22.1.0, SVG Export Plug-In . SVG Version: 6.00 Build 0)  -->
<svg version="1.1" xmlns="http://www.w3.org/2000/svg" xmlns:xlink="http://www.w3.org/1999/xlink" x="0px" y="0px"
	 viewBox="0 0 1920 1080" style="enable-background:new 0 0 1920 1080;" xml:space="preserve">
<style type="text/css">
	.st0{fill:#D8D3DD;}
	.st1{opacity:0.2;clip-path:url(#SVGID_2_);fill:#111111;}
	.st2{clip-path:url(#SVGID_2_);}
	.st3{fill:#A950EF;}
	.st4{fill:#FFFFFF;}
	.st5{fill:#806BB2;}
	.st6{fill:#C5B0ED;}
	
		.st7{clip-path:url(#SVGID_4_);fill:none;stroke:#000000;stroke-width:0.75;stroke-linecap:round;stroke-linejoin:round;stroke-miterlimit:10;}
	.st8{fill:#6C63FF;}
	.st9{fill:none;stroke:#000000;stroke-width:0.75;stroke-linecap:round;stroke-linejoin:round;stroke-miterlimit:10;}
	.st10{fill:#FFCE00;}
	.st11{fill:#F9A58C;}
	.st12{fill:#FF9A00;}
	.st13{clip-path:url(#SVGID_6_);}
	.st14{clip-path:url(#SVGID_8_);}
	.st15{clip-path:url(#SVGID_10_);}
	.st16{clip-path:url(#SVGID_12_);}
	.st17{fill:#ED5172;}
	.st18{fill:none;stroke:#FFFFFF;stroke-width:0.75;stroke-linecap:round;stroke-linejoin:round;stroke-miterlimit:10;}
	.st19{fill:#FFA4A4;}
	.st20{clip-path:url(#SVGID_14_);}
	.st21{clip-path:url(#SVGID_16_);}
	.st22{clip-path:url(#SVGID_18_);}
	.st23{clip-path:url(#SVGID_20_);}
	.st24{fill:none;stroke:#6C63FF;stroke-width:5;stroke-miterlimit:10;}
</style>
<g id="BACKGROUND">
</g>
<g id="OBJECTS">
</g>
<g id="TEXTS">
	<g>
		<rect x="236.6" y="320.7" class="st0" width="1446.8" height="520.4"/>
		<g>
			<defs>
				<rect id="SVGID_1_" x="236.6" y="320.7" width="1446.8" height="520.4"/>
			</defs>
			<clipPath id="SVGID_2_">
				<use xlink:href="#SVGID_1_"  style="overflow:visible;"/>
			</clipPath>
			<polygon class="st1" points="231.6,1229.1 1707.4,1229.1 1707.4,651.1 1617.8,651.1 1617.8,516.7 1554.4,516.7 1554.4,445.8 
				1502.1,445.8 1502.1,524.2 1438.7,524.2 1438.7,651.1 1341.7,651.1 1341.7,814.4 1324.2,814.4 1324.2,384.9 1225.9,384.9 
				1225.9,466.3 1100.4,466.3 1100.4,633.9 1019.1,633.9 1019.1,796.6 998.3,796.6 998.3,378.2 899.9,378.2 899.9,534.1 
				815.2,534.1 815.2,712.8 770.6,712.8 770.6,618.9 696.1,618.9 696.1,469.7 340.1,469.7 340.1,637.4 231.6,637.4 			"/>
			<g class="st2">
				<rect x="408.7" y="548.2" class="st3" width="33.9" height="33.9"/>
				<rect x="502" y="548.2" class="st4" width="33.9" height="33.9"/>
				<rect x="595.3" y="548.2" class="st4" width="33.9" height="33.9"/>
				<rect x="408.7" y="629.3" class="st3" width="33.9" height="33.9"/>
				<rect x="502" y="629.3" class="st4" width="33.9" height="33.9"/>
				<rect x="595.3" y="629.3" class="st4" width="33.9" height="33.9"/>
				<rect x="408.7" y="710.2" class="st3" width="33.9" height="33.9"/>
				<rect x="502" y="710.2" class="st4" width="33.9" height="33.9"/>
				<rect x="595.3" y="710.2" class="st4" width="33.9" height="33.9"/>
				<rect x="408.7" y="791.3" class="st3" width="33.9" height="33.9"/>
				<rect x="502" y="791.3" class="st3" width="33.9" height="33.9"/>
				<rect x="595.3" y="791.3" class="st3" width="33.9" height="33.9"/>
			</g>
			<g class="st2">
				
					<rect x="1244.6" y="791.3" transform="matrix(-1 -1.224647e-16 1.224647e-16 -1 2523.0999 1616.5476)" class="st3" width="33.9" height="33.9"/>
				
					<rect x="1151.3" y="791.3" transform="matrix(-1 -1.224647e-16 1.224647e-16 -1 2336.5005 1616.5476)" class="st4" width="33.9" height="33.9"/>
				
					<rect x="1244.6" y="710.2" transform="matrix(-1 -1.224647e-16 1.224647e-16 -1 2523.0999 1454.3854)" class="st4" width="33.9" height="33.9"/>
				
					<rect x="1151.3" y="710.2" transform="matrix(-1 -1.224647e-16 1.224647e-16 -1 2336.5005 1454.3854)" class="st4" width="33.9" height="33.9"/>
				
					<rect x="1244.6" y="629.3" transform="matrix(-1 -1.224647e-16 1.224647e-16 -1 2523.0999 1292.493)" class="st4" width="33.9" height="33.9"/>
				
					<rect x="1151.3" y="629.3" transform="matrix(-1 -1.224647e-16 1.224647e-16 -1 2336.5005 1292.493)" class="st4" width="33.9" height="33.9"/>
				
					<rect x="1244.6" y="548.2" transform="matrix(-1 -1.224647e-16 1.224647e-16 -1 2523.0999 1130.3308)" class="st4" width="33.9" height="33.9"/>
				
					<rect x="1151.3" y="548.2" transform="matrix(-1 -1.224647e-16 1.224647e-16 -1 2336.5005 1130.3308)" class="st4" width="33.9" height="33.9"/>
			</g>
			<g class="st2">
				<rect x="892.5" y="629.3" class="st4" width="33.9" height="33.9"/>
				<rect x="892.5" y="710.2" class="st4" width="33.9" height="33.9"/>
				<rect x="892.5" y="791.3" class="st4" width="33.9" height="33.9"/>
			</g>
		</g>
		<path class="st5" d="M1695.1,852.7H224.9V309h1470.2V852.7z M248.3,829.4h1423.4v-497H248.3V829.4z"/>
		<rect x="951" y="320.7" class="st5" width="18.1" height="520.4"/>
		
			<rect x="951" y="-142.6" transform="matrix(6.123234e-17 -1 1 6.123234e-17 379.1421 1540.8575)" class="st5" width="18.1" height="1446.8"/>
	</g>
	<g>
		<rect y="950.7" class="st6" width="1920" height="329.3"/>
		<rect y="892.7" class="st5" width="1920" height="58"/>
		<path class="st4" d="M115.5,921.7c0,9.4-7.6,17-17,17c-9.4,0-17-7.6-17-17c0-9.4,7.6-17,17-17
			C107.9,904.8,115.5,912.3,115.5,921.7z"/>
		<path class="st4" d="M460.1,921.7c0,9.4-7.6,17-17,17c-9.4,0-17-7.6-17-17c0-9.4,7.6-17,17-17
			C452.5,904.8,460.1,912.3,460.1,921.7z"/>
		<path class="st4" d="M977,921.7c0,9.4-7.6,17-17,17c-9.4,0-17-7.6-17-17c0-9.4,7.6-17,17-17C969.4,904.8,977,912.3,977,921.7z"/>
		<path class="st4" d="M1493.8,921.7c0,9.4-7.6,17-17,17c-9.4,0-17-7.6-17-17c0-9.4,7.6-17,17-17
			C1486.2,904.8,1493.8,912.3,1493.8,921.7z"/>
		<path class="st4" d="M1838.4,921.7c0,9.4-7.6,17-17,17c-9.4,0-17-7.6-17-17c0-9.4,7.6-17,17-17
			C1830.8,904.8,1838.4,912.3,1838.4,921.7z"/>
		<g>
			<defs>
				<rect id="SVGID_3_" y="950.7" width="1920" height="329.3"/>
			</defs>
			<clipPath id="SVGID_4_">
				<use xlink:href="#SVGID_3_"  style="overflow:visible;"/>
			</clipPath>
			<line class="st7" x1="960" y1="893.2" x2="960" y2="1544.5"/>
			<line class="st7" x1="1263.5" y1="914.1" x2="1493.4" y2="1523.6"/>
			<line class="st7" x1="1631.5" y1="895" x2="1987.9" y2="1440.2"/>
			<line class="st7" x1="661.5" y1="914.1" x2="431.6" y2="1523.6"/>
			<line class="st7" x1="293.5" y1="895" x2="-62.9" y2="1440.2"/>
		</g>
	</g>
	<g>
		<g>
			<g>
				<g>
					<path class="st8" d="M1145.6,1096h404.7l109-370.9l-405.2,47.2c-24.2,2.5-44,20.3-49,44L1145.6,1096z"/>
					<line class="st9" x1="1275.5" y1="770.1" x2="1659.4" y2="725.1"/>
					<line class="st9" x1="1202.1" y1="830.7" x2="1150" y2="1076.9"/>
				</g>
			</g>
			<g>
				<g>
					<path class="st8" d="M1102.5,944.2l-55.2,201.9h154l46.5-243.1h-91.4C1131.3,903,1109.2,919.9,1102.5,944.2z"/>
					<g>
						<path class="st8" d="M1697.8,530.8h-202.6c-25.3,0-47.5,17-54.1,41.5l-63.6,237.2l312.1,38l70.8-241.7
							c8.3-28.3-6.8-58.2-34.5-68.3l-8.9-3.2C1710.9,531.9,1704.4,530.8,1697.8,530.8z"/>
						<line class="st9" x1="1643.6" y1="782.1" x2="1707.5" y2="531.6"/>
					</g>
				</g>
			</g>
			<g>
				<path d="M1381.9,824c0,0-35.2,58,122.4,28.3c0,0,22.5,61.3-135.3,81c-67.5,8.4-108.3,13.9-108.3,13.9s-8.2,48.9-101.7,198.9
					h-70.6c0,0,27-154.1,74.9-274C1187.2,811.9,1381.9,824,1381.9,824z"/>
				<g>
					<path class="st11" d="M1277.7,806.5c0,0-28.5-0.3-35.8,0.1c-7.4,0.4-19.6,1-49.3,16.9c0,0-13.9,7.4-12.3,14.2
						c0,0,1.1,2.8,4.4,2.4c0,0-9,7.2-7.5,11.8s5.5,3,5.5,3s-8.6,7.3-6.2,11.1c2.9,4.5,8.7,3.3,18.5-3.5c0,0-10.9,7.7-8.7,12.3
						c2.1,4.6,9,2.7,16.9-3.5c7.9-6.2,24.9-14.5,28.1-15.5c7.7-2.5,13.4-2,4.1,2.4c-6.2,3-14.8,7.5-12.6,12.2
						c3.2,6.7,10.3,1.5,18-1.1c7.9-2.7,19-12.8,27-19.8c3.5-3.1,9.2-11.7,11.9-16.4C1283.4,826.8,1290.4,808.7,1277.7,806.5z"/>
					<path class="st9" d="M1191.4,865.5c0,0,11.3-12,40.4-24.7"/>
					<path class="st9" d="M1182.7,854.9c0,0,13.4-12.9,44.3-25.7"/>
					<path class="st9" d="M1184.7,840.1c0,0,7.9-8.4,35.9-20"/>
				</g>
				<path class="st12" d="M1446,640.5c0,0-51,86.4-76.9,119.1c-20.9,26.4-73.4,36.6-92.7,39.5c-4.2,0.6-7.3,4.2-7.4,8.5l-0.8,35
					c0,0,72.7,6.9,134.3-11.9c61.5-18.7,103.9-152,103.9-152S1471.9,624.1,1446,640.5z"/>
				<g>
					<path class="st11" d="M1443.9,505.2c-1.2,21.4,12.5,43.2,42.6,39.5l0.6,30.8c0,0,13.3,13.1,36.1,12.8c24.5-0.3,27-9.5,27-9.5
						l-2.3-74.7c1.9,0.6,4.1,0.5,4.1,0.5s14.7-0.3,11-22.2c-3.5-20.7-14.7-14.8-14.7-14.8l-1.6-16.1c0,0-3.5-31.9-52.7-32.5
						c-38.1-0.4-44.6,31.7-44.6,31.7S1444.9,487.2,1443.9,505.2z"/>
					<g>
						<defs>
							<path id="SVGID_5_" d="M1449.4,450.6c0,0,0,0-1.8,15.6c0,0,18.6,4.5,20.3-3C1467.9,463.3,1467.8,451,1449.4,450.6z"/>
						</defs>
						<clipPath id="SVGID_6_">
							<use xlink:href="#SVGID_5_"  style="overflow:visible;"/>
						</clipPath>
						<path class="st13" d="M1433.5,466.2c1.5-2.4,3.2-4,5.2-5.4c2-1.4,4.3-2.4,6.7-3.1c2.4-0.5,4.8-0.8,7.2-0.6
							c1.2,0.1,2.4,0.4,3.5,0.5c1.1,0.3,2.3,0.7,3.4,1.1c1.8,0.7,2.8,2.8,2.2,4.8c-0.6,1.9-2.4,3-4.1,2.5l-0.3-0.1
							c-1.8-0.5-3.6-1-5.5-1.2c-1.8-0.3-3.6-0.3-5.4-0.2c-1.8,0.1-3.6,0.6-5.3,1.3c-1.7,0.6-3.5,1.7-4.9,2.8l-0.3,0.2
							c-0.8,0.6-1.9,0.4-2.4-0.5C1433.1,467.6,1433.2,466.8,1433.5,466.2z"/>
					</g>
					<g>
						<defs>
							<path id="SVGID_7_" d="M1447.4,467.9c0,0-1.5,11.6-3,29.3c0,0,15.6,3,22.2-3c3.1-2.8,4.1-8.2,4.9-16.2
								C1471.6,478,1466.6,466.8,1447.4,467.9z"/>
						</defs>
						<clipPath id="SVGID_8_">
							<use xlink:href="#SVGID_7_"  style="overflow:visible;"/>
						</clipPath>
						<g class="st14">
							<path class="st4" d="M1432.6,481.5c0,0,18.5-18.4,33.8,2.7c0,0-5.7,9.6-17,9.9C1438.1,494.4,1432.6,481.5,1432.6,481.5z"/>
							<g>
								<g>
									<defs>
										<path id="SVGID_9_" d="M1432.6,481.5c0,0,18.5-18.4,33.8,2.7c0,0-5.7,9.6-17,9.9C1438.1,494.4,1432.6,481.5,1432.6,481.5z
											"/>
									</defs>
									<clipPath id="SVGID_10_">
										<use xlink:href="#SVGID_9_"  style="overflow:visible;"/>
									</clipPath>
									<path class="st15" d="M1435.4,485.2c-0.1,6,4.7,10.8,10.7,10.9c6,0.1,10.8-4.7,10.9-10.7c0.1-6-4.7-10.8-10.7-10.9
										C1440.4,474.5,1435.5,479.3,1435.4,485.2z"/>
								</g>
							</g>
							<g>
								<path d="M1466.3,483.9c-2-2.6-4.4-4.7-7.1-6.4c-2.7-1.6-5.8-2.7-8.9-2.8c-3.1-0.2-6.3,0.5-9.2,1.8c-2.9,1.2-5.7,2.9-8.4,4.8
									c-0.1,0-0.1,0-0.2,0c0-0.1,0-0.1,0-0.2c2.3-2.3,5-4.3,8-5.8c1.5-0.8,3.1-1.3,4.7-1.7c1.6-0.4,3.4-0.5,5.1-0.4
									c3.4,0.2,6.7,1.4,9.5,3.3c2.8,1.9,5.1,4.4,6.7,7.3c0,0.1,0,0.1,0,0.2C1466.4,483.9,1466.4,483.9,1466.3,483.9L1466.3,483.9z
									"/>
							</g>
						</g>
					</g>
					<g>
						<path class="st9" d="M1469.2,482.5c-1,10.4-4.7,12.1-7,13.5c0,0-2.3,1.4-1.4,4.2c0.7,2.4,3.2,4.7,5.4,4.5"/>
						<path class="st9" d="M1471.5,503.3c0,0,1.4-1.8,3.5,0.2"/>
						<path class="st9" d="M1477.8,504.6c5.6-3.9-0.3-8.2-0.3-8.2"/>
					</g>
					<path class="st9" d="M1547.5,496.1c0,0,3.8-2.5,2.6-5.8c-1.2-3.3-4.1-2.3-4.1-5.8"/>
					<path class="st9" d="M1549.4,473.4c0,0,6.3-2.8,7.5,9.1"/>
					<path d="M1512.1,467c-1.4-2.4-3.1-4.1-5.1-5.6c-2-1.5-4.2-2.5-6.5-3.2c-2.3-0.6-4.8-0.9-7.1-0.7c-1.2,0-2.3,0.3-3.5,0.5
						c-1.1,0.3-2.3,0.6-3.4,1c-1.8,0.6-2.9,2.8-2.3,4.8c0.5,1.9,2.3,3,4,2.6l0.3-0.1c1.8-0.4,3.6-0.9,5.4-1.1
						c1.8-0.3,3.6-0.3,5.4-0.1c1.8,0.2,3.5,0.7,5.3,1.4c1.7,0.7,3.5,1.8,4.8,2.9l0.2,0.2c0.8,0.6,1.8,0.4,2.4-0.4
						C1512.4,468.5,1512.4,467.6,1512.1,467z"/>
					<g>
						<path class="st4" d="M1514.9,482.4c0,0-18.1-18.8-33.8,1.9c0,0,5.5,9.7,16.8,10.3C1509.2,495.2,1514.9,482.4,1514.9,482.4z"/>
						<g>
							<g>
								<defs>
									<path id="SVGID_11_" d="M1514.9,482.4c0,0-18.1-18.8-33.8,1.9c0,0,5.5,9.7,16.8,10.3
										C1509.2,495.2,1514.9,482.4,1514.9,482.4z"/>
								</defs>
								<clipPath id="SVGID_12_">
									<use xlink:href="#SVGID_11_"  style="overflow:visible;"/>
								</clipPath>
								<path class="st16" d="M1502.8,486c-0.1,6-5,10.7-10.9,10.7c-6-0.1-10.7-5-10.7-10.9c0.1-6,5-10.7,10.9-10.7
									C1498.1,475.1,1502.9,480,1502.8,486z"/>
							</g>
						</g>
						<g>
							<path d="M1481,483.9c1.7-2.8,4.1-5.3,6.9-7.1c2.8-1.9,6.1-3,9.5-3.1c1.7,0,3.4,0.1,5,0.5c1.6,0.5,3.2,1,4.7,1.8
								c3,1.5,5.6,3.6,7.9,5.9c0,0.1,0,0.1,0,0.2c0,0-0.1,0-0.2,0c-2.6-2-5.3-3.7-8.3-5c-2.9-1.3-6-2.1-9.2-2
								c-3.1,0.1-6.2,1.1-8.9,2.6c-2.7,1.6-5.2,3.7-7.3,6.2l0,0c0,0.1-0.1,0.1-0.2,0C1480.9,484,1480.9,484,1481,483.9z"/>
						</g>
					</g>
					<g>
						<path d="M1457.5,510.4c0,0,13.8,1.4,27.6-0.2c0,0,0,17.4-13.7,17.5C1459.4,527.9,1457.5,510.4,1457.5,510.4z"/>
						<path class="st4" d="M1485.1,510.2c0,0-13.8,1.2-27.6,0.2C1457.5,510.4,1461.2,520,1485.1,510.2z"/>
						<path class="st17" d="M1467.8,527.3c0,0,2.7-9,16.3-10.2c0,0-0.8,5.5-6.1,8.9C1473.6,529,1467.8,527.3,1467.8,527.3z"/>
					</g>
					<path d="M1486.7,557.7c22.3,0.2,39-26.7,39-26.7c-7.3,4.1-17.2,10.2-39.3,13.8L1486.7,557.7z"/>
					<path d="M1548.3,467.5c0,0,11.4-5.3,14.7,14.8c0,0,4.5,25-15.1,21.8l0.4,14.1c0,0,22.4-19.5,26.6-47.3
						c4.2-27.7-11.8-44.7-24.5-46.5c0,0-11.2-24.9-66.4-24s-44.9,48.3-34.6,50.2c0,0,2.3-7.6,4.7-11.3c0,0,7.7,9,52-3
						c0,0,4.6,14,14,21c9.4,7.1,10.3,24.2,17.8,21.7C1545.4,476.7,1543.4,468.9,1548.3,467.5z"/>
				</g>
				<g>
					<path class="st12" d="M1549.1,577.8c0,0,33.3,10.3,46.2,23.5c12.9,13.2,9.8,102.4-48.2,282.2c0,0-90.4,35.3-128.2,35.3
						c-37.8,0-18.9-67.6-6.3-143.6c13.3-79.8,0-168.7,73.3-200.7C1485.9,574.5,1499.7,591,1549.1,577.8z"/>
					<path class="st12" d="M1566.8,584.4l-14.7-26.8l-49.5,24.3C1502.6,581.9,1543.8,591.8,1566.8,584.4z"/>
					<path class="st9" d="M1502.6,581.9c0,0-56.9,36.8-56.1,120.6c0.8,83.8-19.6,215.7-19.6,215.7"/>
					<polygon class="st12" points="1498.5,581 1485.3,561.4 1468.7,581.9 					"/>
					<path class="st9" d="M1468.7,581.9c0,0,18.7-1,29.8,3c6.5,3.8,13.8,13.7,13.8,13.7c12.2-2.4,54.5-14.3,54.5-14.3"/>
					<path class="st9" d="M1428.1,650.8c0,0-4.6,22.7-8.9,65.2"/>
				</g>
				<g>
					<g>
						<path class="st11" d="M1286.2,740c0,0-16.8-1.1-24-2.8c-7.2-1.6-19.1-4.3-45.6-25.2c0,0-12.4-9.7-9.6-16.1
							c0,0,1.5-2.6,4.7-1.6c0,0-7.7-8.7-5.4-12.9c2.3-4.2,6-2,6-2s-7.2-8.7-4.1-12c3.6-3.9,9.1-1.7,17.6,6.6c0,0-9.4-9.5-6.5-13.7
							c2.9-4.2,9.3-1.1,16,6.3c6.7,7.5,22,18.6,25,20.2c7.2,3.8,12.8,4.3,4.5-1.6c-5.6-4-13.3-10-10.3-14.2c4.3-6,10.5,0.3,17.5,4.2
							c7.3,4.1,30.3,18.2,36.9,26.5c2.9,3.6,3.4,15.8,5.3,20.9C1316.8,729.6,1299.1,740.1,1286.2,740z"/>
						<path class="st9" d="M1222.7,670.5c0,0,9.1,13.8,35.6,31.3"/>
						<path class="st9" d="M1212.3,679.4c0,0,11,15.1,39.2,33"/>
						<path class="st9" d="M1211.7,694.3c0,0,6.4,9.6,31.9,26"/>
					</g>
					<g>
						<path class="st12" d="M1524.6,621.7c0,0-71.8,53.2-108.7,106.4c0,0-45.5-21.2-114-35.3c0,0-15.5,22.3-19.1,49
							c-0.4,3,0.7,5.9,3,7.9c12.6,10.8,58.8,46.8,126.8,58.8c0,0,103.2-35.8,161.9-101C1633.1,642.4,1550.8,590.2,1524.6,621.7z"/>
						<path class="st9" d="M1506.4,636c-23.8,19.4-65.3,55.8-90.5,92.1c0,0-45.5-21.2-114-35.3"/>
						<path class="st9" d="M1592.2,678.7c16.9-50.4-45.5-83.6-67.6-57"/>
						<path class="st9" d="M1412.6,808.5c0,0,103.2-35.8,161.9-101"/>
					</g>
					<path class="st9" d="M1316.2,772.5c0,0,48.8,27.3,86.3,34"/>
				</g>
				<g>
					<path d="M1402.2,822.7c0,0,46.5,33.9,153.9,32.2c0,0,12.2,86.4-84.6,99.8c-67.3,9.3-143.9-7.5-143.9-7.5s-8.2,48.9-101.7,198.9
						h-70.6c0,0,38.9-234.7,70-283.7C1258.8,809.5,1402.2,822.7,1402.2,822.7z"/>
					<path class="st18" d="M1155.2,1146.1c0,0,20.8-97.1,41.7-204.8c20.7-106.7,51.8-112.9,168.6-120.2"/>
				</g>
			</g>
			<g>
				<g>
					<path class="st8" d="M1197.4,1146.1h404.7l109-370.9L1306,822.4c-24.2,2.5-44,20.3-49,44L1197.4,1146.1z"/>
					<line class="st9" x1="1327.3" y1="820.2" x2="1711.1" y2="775.2"/>
				</g>
				<line class="st9" x1="1306.5" y1="858.6" x2="1253" y2="1128.6"/>
			</g>
		</g>
		<g>
			<g>
				<g>
					<path class="st8" d="M775.8,1096H371.1l-109-370.9l405.2,47.2c24.2,2.5,44,20.3,49,44L775.8,1096z"/>
					<line class="st9" x1="645.9" y1="770.1" x2="262.1" y2="725.1"/>
					<line class="st9" x1="719.3" y1="830.7" x2="771.5" y2="1076.9"/>
				</g>
			</g>
			<g>
				<g>
					<path class="st8" d="M818.9,944.2l55.2,201.9H720L673.6,903h91.4C790.2,903,812.3,919.9,818.9,944.2z"/>
					<g>
						<path class="st8" d="M223.6,530.8h202.6c25.3,0,47.5,17,54.1,41.5l63.6,237.2l-312.1,38L161,605.7
							c-8.3-28.3,6.8-58.2,34.5-68.3l8.9-3.2C210.6,531.9,217.1,530.8,223.6,530.8z"/>
						<line class="st9" x1="277.9" y1="782.1" x2="213.9" y2="531.6"/>
					</g>
				</g>
			</g>
			<g>
				<path d="M539.6,824c0,0,35.2,58-122.4,28.3c0,0-22.5,61.3,135.3,81c67.5,8.4,108.3,13.9,108.3,13.9s8.2,48.9,101.7,198.9h70.6
					c0,0-27-154.1-74.9-274C734.2,811.9,539.6,824,539.6,824z"/>
				<g>
					<path class="st11" d="M608.3,802.3c0,0,28.5-0.3,35.8,0.1c7.4,0.4,19.6,1,49.3,16.9c0,0,13.9,7.4,12.3,14.2
						c0,0-1.1,2.8-4.4,2.4c0,0,9,7.2,7.5,11.8c-1.5,4.5-5.5,3-5.5,3s8.6,7.3,6.2,11.1c-2.9,4.5-8.7,3.3-18.5-3.5
						c0,0,10.9,7.7,8.7,12.3c-2.1,4.6-9,2.7-16.9-3.5c-7.9-6.2-24.9-14.5-28.1-15.5c-7.7-2.5-13.4-2-4.1,2.4
						c6.2,3,14.8,7.5,12.6,12.2c-3.2,6.7-10.3,1.5-18-1.1c-7.9-2.7-19-12.8-27-19.8c-3.5-3.1-9.2-11.7-11.9-16.4
						C602.5,822.6,595.5,804.5,608.3,802.3z"/>
					<path class="st9" d="M694.6,861.3c0,0-11.3-12-40.4-24.7"/>
					<path class="st9" d="M703.3,850.7c0,0-13.4-13-44.3-25.7"/>
					<path class="st9" d="M701.3,835.9c0,0-7.9-8.4-35.9-20"/>
				</g>
				<path class="st17" d="M475.4,640.5c0,0,26.8,75.5,52.7,129.6c27.8,5.1,97.5,26,116.8,28.9c4.2,0.6,7.3,4.2,7.4,8.5l0.8,35
					c0,0-72.7,6.9-134.3-11.9c-61.5-18.7-103.9-152-103.9-152S449.6,624.1,475.4,640.5z"/>
				<g>
					<path class="st19" d="M477.6,505.2c1.2,21.4-12.5,43.2-42.6,39.5l-0.6,30.8c0,0-13.3,13.1-36.1,12.8c-24.5-0.3-27-9.5-27-9.5
						l2.3-74.7c-1.9,0.6-4.1,0.5-4.1,0.5s-14.7-0.3-11-22.2c3.5-20.7,14.7-14.8,14.7-14.8l1.6-16.1c0,0,3.5-31.9,52.7-32.5
						c38.1-0.4,44.6,31.7,44.6,31.7S476.5,487.2,477.6,505.2z"/>
					<g>
						<defs>
							<path id="SVGID_13_" d="M472,450.6c0,0,0,0,1.8,15.6c0,0-18.6,4.5-20.3-3C453.5,463.3,453.7,451,472,450.6z"/>
						</defs>
						<clipPath id="SVGID_14_">
							<use xlink:href="#SVGID_13_"  style="overflow:visible;"/>
						</clipPath>
						<path class="st20" d="M487.9,466.2c-1.5-2.4-3.2-4-5.2-5.4c-2-1.4-4.3-2.4-6.7-3.1c-2.4-0.5-4.8-0.8-7.2-0.6
							c-1.2,0.1-2.4,0.4-3.5,0.5c-1.1,0.3-2.3,0.7-3.4,1.1c-1.8,0.7-2.8,2.8-2.2,4.8c0.6,1.9,2.4,3,4.1,2.5l0.3-0.1
							c1.8-0.5,3.6-1,5.5-1.2c1.8-0.3,3.6-0.3,5.4-0.2c1.8,0.1,3.6,0.6,5.3,1.3c1.7,0.6,3.5,1.7,4.9,2.8l0.3,0.2
							c0.8,0.6,1.9,0.4,2.4-0.5C488.3,467.6,488.3,466.8,487.9,466.2z"/>
					</g>
					<g>
						<defs>
							<path id="SVGID_15_" d="M474,467.9c0,0,1.5,11.6,3,29.3c0,0-15.6,3-22.2-3c-3.1-2.8-4.1-8.2-4.9-16.2
								C449.9,478,454.8,466.8,474,467.9z"/>
						</defs>
						<clipPath id="SVGID_16_">
							<use xlink:href="#SVGID_15_"  style="overflow:visible;"/>
						</clipPath>
						<g class="st21">
							<path class="st4" d="M488.8,481.5c0,0-18.5-18.4-33.8,2.7c0,0,5.7,9.6,17,9.9C483.3,494.4,488.8,481.5,488.8,481.5z"/>
							<g>
								<g>
									<defs>
										<path id="SVGID_17_" d="M488.8,481.5c0,0-18.5-18.4-33.8,2.7c0,0,5.7,9.6,17,9.9C483.3,494.4,488.8,481.5,488.8,481.5z"/>
									</defs>
									<clipPath id="SVGID_18_">
										<use xlink:href="#SVGID_17_"  style="overflow:visible;"/>
									</clipPath>
									<path class="st22" d="M486,485.2c0.1,6-4.7,10.8-10.7,10.9c-6,0.1-10.8-4.7-10.9-10.7c-0.1-6,4.7-10.8,10.7-10.9
										C481.1,474.5,486,479.3,486,485.2z"/>
								</g>
							</g>
							<g>
								<path d="M454.9,483.7c1.6-2.9,3.9-5.4,6.7-7.3c2.7-1.9,6.1-3.2,9.5-3.3c1.7-0.1,3.4,0.1,5.1,0.4c1.6,0.4,3.3,0.9,4.7,1.7
									c3,1.4,5.7,3.5,8,5.8c0.1,0.1,0.1,0.1,0,0.2c0,0-0.1,0.1-0.2,0c-2.6-1.9-5.4-3.6-8.4-4.8c-2.9-1.2-6.1-1.9-9.2-1.8
									c-3.1,0.1-6.2,1.2-8.9,2.8c-2.7,1.7-5.1,3.9-7.1,6.4l0,0c0,0.1-0.1,0.1-0.2,0C454.9,483.9,454.9,483.8,454.9,483.7z"/>
							</g>
						</g>
					</g>
					<g>
						<path class="st9" d="M452.2,482.5c1,10.4,4.7,12.1,7,13.5c0,0,2.3,1.4,1.4,4.2c-0.7,2.4-3.2,4.7-5.4,4.5"/>
						<path class="st9" d="M449.9,503.3c0,0-1.4-1.8-3.5,0.2"/>
						<path class="st9" d="M443.6,504.6c-5.6-3.9,0.3-8.2,0.3-8.2"/>
					</g>
					<path class="st9" d="M373.9,496.1c0,0-3.8-2.5-2.6-5.8c1.2-3.3,4.1-2.3,4.1-5.8"/>
					<path class="st9" d="M372,473.4c0,0-6.3-2.8-7.5,9.1"/>
					<path d="M409.4,467c1.4-2.4,3.1-4.1,5.1-5.6c2-1.5,4.2-2.5,6.5-3.2c2.3-0.6,4.8-0.9,7.1-0.7c1.2,0,2.3,0.3,3.5,0.5
						c1.1,0.3,2.3,0.6,3.4,1c1.8,0.6,2.9,2.8,2.3,4.8c-0.5,1.9-2.3,3-4,2.6l-0.3-0.1c-1.8-0.4-3.6-0.9-5.4-1.1
						c-1.8-0.3-3.6-0.3-5.4-0.1c-1.8,0.2-3.5,0.7-5.3,1.4c-1.7,0.7-3.5,1.8-4.8,2.9l-0.2,0.2c-0.8,0.6-1.8,0.4-2.4-0.4
						C409,468.5,409,467.6,409.4,467z"/>
					<g>
						<path class="st4" d="M406.5,482.4c0,0,18.1-18.8,33.8,1.9c0,0-5.5,9.7-16.8,10.3C412.3,495.2,406.5,482.4,406.5,482.4z"/>
						<g>
							<g>
								<defs>
									<path id="SVGID_19_" d="M406.5,482.4c0,0,18.1-18.8,33.8,1.9c0,0-5.5,9.7-16.8,10.3C412.3,495.2,406.5,482.4,406.5,482.4z"
										/>
								</defs>
								<clipPath id="SVGID_20_">
									<use xlink:href="#SVGID_19_"  style="overflow:visible;"/>
								</clipPath>
								<path class="st23" d="M418.6,486c0.1,6,5,10.7,10.9,10.7c6-0.1,10.7-5,10.7-10.9c-0.1-6-5-10.7-10.9-10.7
									C423.3,475.1,418.6,480,418.6,486z"/>
							</g>
						</g>
						<g>
							<path d="M440.3,484c-2.1-2.5-4.5-4.6-7.3-6.2c-2.7-1.6-5.8-2.6-8.9-2.6c-3.1-0.1-6.3,0.7-9.2,2c-2.9,1.3-5.7,3.1-8.3,5
								c-0.1,0-0.1,0-0.2,0c0-0.1,0-0.1,0-0.2c2.3-2.3,4.9-4.4,7.9-5.9c1.5-0.8,3.1-1.3,4.7-1.8c1.6-0.4,3.3-0.6,5-0.5
								c3.4,0.1,6.7,1.3,9.5,3.1c2.8,1.9,5.1,4.3,6.9,7.1c0,0.1,0,0.1,0,0.2C440.4,484.1,440.3,484.1,440.3,484L440.3,484z"/>
						</g>
					</g>
					<path d="M434.7,557.7c-22.3,0.2-39-26.7-39-26.7c7.3,4.1,17.2,10.2,39.3,13.8L434.7,557.7z"/>
					<path class="st9" d="M437.3,512.5c0,0,8.8,12.6,23.5,7.2"/>
					<path d="M367,467.2l-7.7-24.4c0,0-8.1-17.9,2.6-25.4s14.7-2,14.7-2s-1.2-14.1,12.7-19.3c13.8-5.2,17.2,5.8,17.2,5.8
						s4.5-14.1,16.7-16.1c12.2-2,14.1,11.2,14.1,11.2s10.5-12.1,24.9-8.1c14.4,4,8.9,17.9,8.9,17.9s16.4,1.7,10.4,17.6
						c0,0,7.3,8.9-4.6,16.7c0,0-4.3,5.8-4.8,10.9c0,0-1.1-5.1-8.7-11.3c-7.6-6.3-8.3,4.8-20.9,4.8c-12.6,0-21.1-13.6-36,5.2
						c-15,18.8-13.1,29.8-22.1,31.9C375.4,484.6,376.2,467,367,467.2z"/>
				</g>
				<g>
					<path class="st17" d="M375.4,564.1c-4.1-0.9-8,2.3-7.9,6.5c0.1,4.4-0.3,9-2.6,9.8c-10.6,3.9-24.7,12.4-38.5,35
						c-9.6,15.7-10,88.3,48,268c0,0,90.4,35.3,128.2,35.3c37.8,0,18.9-67.6,6.3-143.6c-12.9-77.5-22.7-164.8-67.4-197.9
						c-0.7-0.5-0.9-2.8-0.8-5.6c0.1-4.4-4.1-7.5-8.3-6.4C422.8,567.8,403.9,570.4,375.4,564.1z"/>
					<path class="st9" d="M483.2,646.2c0,0,11.7,27.2,15.9,69.8c0,0,4.1,24.5,5.8,39.5c1.7,15,15.9,88.2,15.9,88.2"/>
					<path class="st9" d="M364.8,580.4c0,0-6.4,4.9,5.3,9.2c11.6,4.3,43.4,5.7,66.2-4.6"/>
				</g>
				<g>
					<path d="M519.3,822.7c0,0-46.5,33.9-153.9,32.2c0,0-12.2,86.4,84.6,99.8c67.3,9.3,143.9-7.5,143.9-7.5s8.2,48.9,101.7,198.9
						h70.6c0,0-38.9-234.7-70-283.7C662.6,809.5,519.3,822.7,519.3,822.7z"/>
					<path class="st18" d="M766.2,1146.1c0,0-20.8-97.1-41.7-204.8c-20.7-106.7-51.8-112.9-168.6-120.2"/>
				</g>
			</g>
			<g>
				<g>
					<path class="st8" d="M724,1146.1H319.3l-109-370.9l405.2,47.2c24.2,2.5,44,20.3,49,44L724,1146.1z"/>
					<line class="st9" x1="594.2" y1="820.2" x2="210.3" y2="775.2"/>
				</g>
				<line class="st9" x1="615" y1="858.6" x2="668.5" y2="1128.6"/>
			</g>
			<g>
				<g>
					<path class="st11" d="M522.6,881.7c0,0,13.2,10.5,19.6,14.1c6.4,3.6,17,9.6,50.7,12c0,0,15.7,1.2,18-5.5c0,0,0.6-2.9-2.4-4.3
						c0,0,11.5-1.3,12.7-5.9c1.2-4.6-3.1-5.5-3.1-5.5s11.2-1.5,11.2-6.1c0-5.4-5.6-7.4-17.5-6.9c0,0,13.3-0.7,14-5.8
						c0.7-5-6.1-7.1-16.1-6.1c-10,1-28.8-1.1-32-1.9c-7.9-2-12.4-5.4-2.2-4.2c6.8,0.8,16.6,1.6,17.2-3.6c0.8-7.3-7.9-6.8-15.8-8.7
						c-8.2-1.9-34.7-6.9-45.1-5.3c-4.6,0.7-13.1,9.4-18,11.9C506.9,853.4,513,873,522.6,881.7z"/>
					<path class="st9" d="M618,886.6c0,0,11.2-1.5,11.2-6.1c0-5.4-5.6-7.4-17.5-6.9c0,0,13.3-0.7,14-5.8c0.7-5-6.1-7.1-16.1-6.1
						c-10,1-28.8-1.1-32-1.9c-7.9-2-12.4-5.4-2.2-4.2c6.8,0.8,16.6,1.6,17.2-3.6c0.8-7.3-7.9-6.8-15.8-8.7"/>
					<path class="st9" d="M542.2,895.8c6.4,3.6,17,9.6,50.7,12c0,0,15.7,1.2,18-5.5c0,0,0.6-2.9-2.4-4.3"/>
					<path class="st9" d="M616.4,873c0,0-16,4.1-47.4-0.8"/>
					<path class="st9" d="M618,886.6c0,0-18.3,3.8-51.2-1.9"/>
					<path class="st9" d="M608.4,898c0,0-11.2,2.8-41.1-2.3"/>
				</g>
				<g>
					<path class="st17" d="M425.8,633.8c0,0,17.3,87.7,8.8,151.9c0,0,47.9,15,108,50.6c0,0-3.5,26.9-18.9,49.1
						c-1.7,2.5-4.5,3.9-7.5,3.8c-16.6-0.5-75-4.9-133.3-41.8c0,0-52.3-96-51.8-183.6C331.6,576,427.6,592.9,425.8,633.8z"/>
					<path class="st9" d="M429.6,656.6c4.5,30.3,10.8,85.2,5,129.1c0,0,47.9,15,108,50.6"/>
					<path class="st9" d="M337.4,630.4c21.4-48.6,89.9-31.3,88.4,3.4"/>
					<path class="st9" d="M382.9,847.3c0,0-52.3-96-51.8-183.6"/>
				</g>
				<path class="st9" d="M478.4,885.6c0,0-54.5-12.6-86.7-32.9"/>
			</g>
		</g>
	</g>
	<g>
		<path class="st24" d="M759.3,146.9c-7.3,0.5-12.9,1.1-12.9,1.1v-8.4c0,0,5.7,0.7,12.9,1.1c2.8,0.2,5.7,0.3,8.7,0.3s6-0.2,8.7-0.3
			c7.4-0.5,13-1.1,13-1.1v8.4c0,0-5.7-0.7-13-1.1h-0.7c-0.5,4.3-1.2,12.3-1.9,21.6c-0.3,5.2-0.7,11-0.7,16.7v1.5
			c0,5.2,0.3,10.5,0.7,15.3c1,14.2,2.4,25.2,2.4,25.2h-16.8c0,0,1.4-11,2.3-25.2c0.4-5.3,0.7-11.1,0.7-16.8s-0.4-11.5-0.8-16.7
			c-0.6-9.4-1.4-17.4-1.8-21.7C759.8,146.8,759.6,146.9,759.3,146.9z"/>
		<path class="st24" d="M789.3,223.2l-8.2-1.7c0,0,2.9-10.2,6.1-23.4c1.2-5,2.5-10.3,3.7-15.7c1.1-5.4,2-10.9,2.9-15.9
			c0.9-5.1,3.9-23.9,3.9-23.9l12.3-0.9c0,0,1.1,11.3,3.1,25.6c0.7,5.4,1.6,11.2,2.8,17c1.2,5.7,2.8,11.4,4.2,16.6
			c3.9,14,7.6,24.7,7.6,24.7l-16.4,3.5c0,0-0.9-10.3-2.8-23.8c-0.6-0.1-1.1-0.2-1.8-0.2c-1.6-0.2-3.3-0.4-4.9-0.4
			c-1.7,0-3.4,0.2-4.9,0.3c-2,0.2-3.7,0.5-4.9,0.7C790.4,215.9,789.3,223.2,789.3,223.2z M805.5,186.4c-1.2-5.7-2.9-11.4-4.3-16.6
			c-0.3-1.1-0.7-2.4-1-3.5c-0.1,0.5-0.2,1-0.3,1.4c-1.2,5-2.5,10.3-3.7,15.7c-1.1,5.1-2,10.2-2.9,15c1.1,0.2,2.3,0.3,3.7,0.5
			c1.6,0.2,3.2,0.4,4.9,0.4c1.6-0.1,3.4-0.2,4.9-0.4c0.3-0.1,0.6-0.1,0.9-0.1C807.1,194.7,806.4,190.5,805.5,186.4z"/>
		<path class="st24" d="M832.7,206.3c0.3-5.8,0.7-12.1,0.7-18.4s-0.3-12.6-0.7-18.4c-1-15.6-2.4-27.6-2.4-27.6h16.8
			c0,0-1.4,12-2.4,27.6c-0.3,5.8-0.7,12.1-0.7,18.4s0.4,12.6,0.7,18.4c0.6,8.7,1.2,16.3,1.6,21.4c0.5,0,1,0.1,1.5,0.1
			c1.6,0.2,3.4,0.3,5.2,0.3h0.8c2.1,0,4.2-0.2,6.1-0.3c5.2-0.5,9.2-1.1,9.2-1.1v8.4c0,0-4-0.6-9.2-1.1c-2-0.2-4-0.4-6.1-0.4
			c-2,0-23.7,0.5-23.7,0.5S831.7,221.9,832.7,206.3z"/>
		<path class="st24" d="M901.1,157.8c0-4.8-0.3-9.7-0.9-14.4h14.7c-1.6,22-4.3,42.8-18.6,49.6c14.6,2.1,18.7,10.5,20.3,33.1l1.1,9.7
			h-16.8l1.1-9.7c0.6-4.7,0.9-8.7,0.9-12.2c0-12-3.8-17.3-14.3-17.3c-0.6,0-1.1,0.1-1.7,0.1h-2.3c0.2,2.3,0.3,4.5,0.4,6.6
			c1,13.4,2.4,23.8,2.4,23.8h-16.8c0,0,1.4-10.4,2.4-23.8c0.3-5.1,0.7-10.5,0.7-15.9c0-5.5-0.4-10.9-0.7-16
			c-1-13.4-2.3-23.8-2.3-23.8h16.8c0,0-1.3,10.4-2.3,23.8c-0.3,5.1-0.7,10.5-0.7,16c0,1.2,0,2.5,0.1,3.7h1.3
			C897,191.1,901.1,175,901.1,157.8z"/>
		<path class="st24" d="M975.2,141.1c21.3,0,19.7,14.5,20.5,30.2h-12v-2c0-17-0.2-22.7-8.4-22.7c-8.1,0-10.1,7.5-10.1,24.7
			c0,18.6,30.5-1,30.5,27.9c0,1.4,0.1,2.9,0.1,4.3c0,14.6-2.6,26.7-22,26.7c-15.6,0-20.4-8.7-20.4-25.9c0-1.6,0-3.3,0.1-5H965
			c-0.1,2.9-0.2,5.6-0.2,7.9c0,12.9,2,17.4,9,17.4c10.4,0,9.1-9.6,9.7-25.3c0-18.4-30.3,2.1-30.3-28
			C953.3,151,958.2,141.1,975.2,141.1z"/>
		<path class="st24" d="M1035.5,166.7c-0.9-16.1-2.4-28.6-2.4-28.6h16.8c0,0-1.4,12.5-2.3,28.6c-0.4,6.1-0.7,12.5-0.7,19.1
			c0,6.5,0.4,13,0.8,19c0.9,16.1,2.2,28.6,2.2,28.6h-16.8c0,0,1.3-12.5,2.3-28.6c0.3-5.1,0.7-10.6,0.7-16.1
			c-1.2-0.2-2.6-0.3-4.1-0.4c-2.1-0.2-4.4-0.4-6.7-0.4s-4.5,0.2-6.6,0.3c-0.9,0.1-1.9,0.2-2.7,0.2c0.1,4.7,0.4,9.3,0.7,13.5
			c0.9,14.2,2.2,25.2,2.2,25.2h-16.7c0,0,1.2-11,2.2-25.2c0.3-5.3,0.7-11,0.7-16.8v-1.5c0-5.2-0.3-10.5-0.7-15.2
			c-0.9-14.3-2.3-25.2-2.3-25.2h16.7c0,0-1.4,11-2.3,25.2c-0.3,4.3-0.6,8.8-0.7,13.4c0.8,0.1,1.7,0.2,2.7,0.2
			c2.1,0.2,4.3,0.4,6.6,0.4s4.6-0.2,6.7-0.4c1.5-0.2,2.9-0.2,4.1-0.4C1036.1,176.6,1035.8,171.6,1035.5,166.7z"/>
		<path class="st24" d="M1076.7,146.2c17.1,0,22.6,9.3,22.6,38.3c0,30.8-5.5,38.3-22.6,38.3c-18.8,0-22.9-9.3-22.9-38.3
			C1053.8,155.5,1059.7,146.2,1076.7,146.2z M1076.7,151.9c-8.1,0-11.1,7.5-11.1,32.7c0,25.1,2.6,32.6,11.1,32.6s10.6-7.5,10.6-32.6
			S1085.2,151.9,1076.7,151.9z"/>
		<path class="st24" d="M1153.9,208c1.1-5.9,2.5-12.2,3.5-18.6c1.1-6.4,2-12.8,2.9-18.7c2.2-15.7,3.6-28.1,3.6-28.1l8.3,1.4
			c0,0-2.8,12.1-5.9,27.8c-1.2,5.8-2.5,12.1-3.5,18.5c-1.1,6.4-2,12.8-2.9,18.7c-0.8,6.2-3.6,28.2-3.6,28.2l-12.5,0.7
			c0,0-0.6-10.9-2-24.8c-0.6-5.2-1.1-10.9-2.1-16.5c-0.9-5.6-2.2-11.1-3.5-16.2c0-0.2-0.1-0.5-0.2-0.7c-1.1,4.6-2.2,9.5-3.2,14.5
			c-1.1,5.3-2,10.7-2.8,15.6c-0.7,4.6-3.5,23.4-3.5,23.4l-12.4,0.7c0,0-0.7-10.9-2.2-24.9c-0.6-5.2-1.1-10.9-2.1-16.5
			c-1.1-5.7-2.4-11.1-3.7-16.3c-3.4-13.6-6.7-24.1-6.7-24.1l16.5-2.9c0,0,0.5,10.9,2,24.9c0.7,5.2,1.3,10.9,2.3,16.5
			c1.1,5.7,2.5,11.1,3.8,16.2l0.2,1c1.1-4.7,2.2-9.6,3.3-14.6c1.1-5.3,2-10.6,2.7-15.6c0.7-4.5,3.5-23.4,3.5-23.4h12.7
			c0,0,0.2,10.3,1.6,24.3c0.5,5.2,1.1,10.9,2.1,16.5c0.9,5.1,2.1,10.1,3.3,14.7C1153.7,209,1153.8,208.5,1153.9,208z"/>
	</g>
	<g>
		<path class="st4" d="M759.3,146.9c-7.3,0.5-12.9,1.1-12.9,1.1v-8.4c0,0,5.7,0.7,12.9,1.1c2.8,0.2,5.7,0.3,8.7,0.3s6-0.2,8.7-0.3
			c7.4-0.5,13-1.1,13-1.1v8.4c0,0-5.7-0.7-13-1.1h-0.7c-0.5,4.3-1.2,12.3-1.9,21.6c-0.3,5.2-0.7,11-0.7,16.7v1.5
			c0,5.2,0.3,10.5,0.7,15.3c1,14.2,2.4,25.2,2.4,25.2h-16.8c0,0,1.4-11,2.3-25.2c0.4-5.3,0.7-11.1,0.7-16.8s-0.4-11.5-0.8-16.7
			c-0.6-9.4-1.4-17.4-1.8-21.7C759.8,146.8,759.6,146.9,759.3,146.9z"/>
		<path class="st4" d="M789.3,223.2l-8.2-1.7c0,0,2.9-10.2,6.1-23.4c1.2-5,2.5-10.3,3.7-15.7c1.1-5.4,2-10.9,2.9-15.9
			c0.9-5.1,3.9-23.9,3.9-23.9l12.3-0.9c0,0,1.1,11.3,3.1,25.6c0.7,5.4,1.6,11.2,2.8,17c1.2,5.7,2.8,11.4,4.2,16.6
			c3.9,14,7.6,24.7,7.6,24.7l-16.4,3.5c0,0-0.9-10.3-2.8-23.8c-0.6-0.1-1.1-0.2-1.8-0.2c-1.6-0.2-3.3-0.4-4.9-0.4
			c-1.7,0-3.4,0.2-4.9,0.3c-2,0.2-3.7,0.5-4.9,0.7C790.4,215.9,789.3,223.2,789.3,223.2z M805.5,186.4c-1.2-5.7-2.9-11.4-4.3-16.6
			c-0.3-1.1-0.7-2.4-1-3.5c-0.1,0.5-0.2,1-0.3,1.4c-1.2,5-2.5,10.3-3.7,15.7c-1.1,5.1-2,10.2-2.9,15c1.1,0.2,2.3,0.3,3.7,0.5
			c1.6,0.2,3.2,0.4,4.9,0.4c1.6-0.1,3.4-0.2,4.9-0.4c0.3-0.1,0.6-0.1,0.9-0.1C807.1,194.7,806.4,190.5,805.5,186.4z"/>
		<path class="st4" d="M832.7,206.3c0.3-5.8,0.7-12.1,0.7-18.4s-0.3-12.6-0.7-18.4c-1-15.6-2.4-27.6-2.4-27.6h16.8
			c0,0-1.4,12-2.4,27.6c-0.3,5.8-0.7,12.1-0.7,18.4s0.4,12.6,0.7,18.4c0.6,8.7,1.2,16.3,1.6,21.4c0.5,0,1,0.1,1.5,0.1
			c1.6,0.2,3.4,0.3,5.2,0.3h0.8c2.1,0,4.2-0.2,6.1-0.3c5.2-0.5,9.2-1.1,9.2-1.1v8.4c0,0-4-0.6-9.2-1.1c-2-0.2-4-0.4-6.1-0.4
			c-2,0-23.7,0.5-23.7,0.5S831.7,221.9,832.7,206.3z"/>
		<path class="st4" d="M901.1,157.8c0-4.8-0.3-9.7-0.9-14.4h14.7c-1.6,22-4.3,42.8-18.6,49.6c14.6,2.1,18.7,10.5,20.3,33.1l1.1,9.7
			h-16.8l1.1-9.7c0.6-4.7,0.9-8.7,0.9-12.2c0-12-3.8-17.3-14.3-17.3c-0.6,0-1.1,0.1-1.7,0.1h-2.3c0.2,2.3,0.3,4.5,0.4,6.6
			c1,13.4,2.4,23.8,2.4,23.8h-16.8c0,0,1.4-10.4,2.4-23.8c0.3-5.1,0.7-10.5,0.7-15.9c0-5.5-0.4-10.9-0.7-16
			c-1-13.4-2.3-23.8-2.3-23.8h16.8c0,0-1.3,10.4-2.3,23.8c-0.3,5.1-0.7,10.5-0.7,16c0,1.2,0,2.5,0.1,3.7h1.3
			C897,191.1,901.1,175,901.1,157.8z"/>
		<path class="st4" d="M975.2,141.1c21.3,0,19.7,14.5,20.5,30.2h-12v-2c0-17-0.2-22.7-8.4-22.7c-8.1,0-10.1,7.5-10.1,24.7
			c0,18.6,30.5-1,30.5,27.9c0,1.4,0.1,2.9,0.1,4.3c0,14.6-2.6,26.7-22,26.7c-15.6,0-20.4-8.7-20.4-25.9c0-1.6,0-3.3,0.1-5H965
			c-0.1,2.9-0.2,5.6-0.2,7.9c0,12.9,2,17.4,9,17.4c10.4,0,9.1-9.6,9.7-25.3c0-18.4-30.3,2.1-30.3-28
			C953.3,151,958.2,141.1,975.2,141.1z"/>
		<path class="st4" d="M1035.5,166.7c-0.9-16.1-2.4-28.6-2.4-28.6h16.8c0,0-1.4,12.5-2.3,28.6c-0.4,6.1-0.7,12.5-0.7,19.1
			c0,6.5,0.4,13,0.8,19c0.9,16.1,2.2,28.6,2.2,28.6h-16.8c0,0,1.3-12.5,2.3-28.6c0.3-5.1,0.7-10.6,0.7-16.1
			c-1.2-0.2-2.6-0.3-4.1-0.4c-2.1-0.2-4.4-0.4-6.7-0.4s-4.5,0.2-6.6,0.3c-0.9,0.1-1.9,0.2-2.7,0.2c0.1,4.7,0.4,9.3,0.7,13.5
			c0.9,14.2,2.2,25.2,2.2,25.2h-16.7c0,0,1.2-11,2.2-25.2c0.3-5.3,0.7-11,0.7-16.8v-1.5c0-5.2-0.3-10.5-0.7-15.2
			c-0.9-14.3-2.3-25.2-2.3-25.2h16.7c0,0-1.4,11-2.3,25.2c-0.3,4.3-0.6,8.8-0.7,13.4c0.8,0.1,1.7,0.2,2.7,0.2
			c2.1,0.2,4.3,0.4,6.6,0.4s4.6-0.2,6.7-0.4c1.5-0.2,2.9-0.2,4.1-0.4C1036.1,176.6,1035.8,171.6,1035.5,166.7z"/>
		<path class="st4" d="M1076.7,146.2c17.1,0,22.6,9.3,22.6,38.3c0,30.8-5.5,38.3-22.6,38.3c-18.8,0-22.9-9.3-22.9-38.3
			C1053.8,155.5,1059.7,146.2,1076.7,146.2z M1076.7,151.9c-8.1,0-11.1,7.5-11.1,32.7c0,25.1,2.6,32.6,11.1,32.6s10.6-7.5,10.6-32.6
			S1085.2,151.9,1076.7,151.9z"/>
		<path class="st4" d="M1153.9,208c1.1-5.9,2.5-12.2,3.5-18.6c1.1-6.4,2-12.8,2.9-18.7c2.2-15.7,3.6-28.1,3.6-28.1l8.3,1.4
			c0,0-2.8,12.1-5.9,27.8c-1.2,5.8-2.5,12.1-3.5,18.5c-1.1,6.4-2,12.8-2.9,18.7c-0.8,6.2-3.6,28.2-3.6,28.2l-12.5,0.7
			c0,0-0.6-10.9-2-24.8c-0.6-5.2-1.1-10.9-2.1-16.5c-0.9-5.6-2.2-11.1-3.5-16.2c0-0.2-0.1-0.5-0.2-0.7c-1.1,4.6-2.2,9.5-3.2,14.5
			c-1.1,5.3-2,10.7-2.8,15.6c-0.7,4.6-3.5,23.4-3.5,23.4l-12.4,0.7c0,0-0.7-10.9-2.2-24.9c-0.6-5.2-1.1-10.9-2.1-16.5
			c-1.1-5.7-2.4-11.1-3.7-16.3c-3.4-13.6-6.7-24.1-6.7-24.1l16.5-2.9c0,0,0.5,10.9,2,24.9c0.7,5.2,1.3,10.9,2.3,16.5
			c1.1,5.7,2.5,11.1,3.8,16.2l0.2,1c1.1-4.7,2.2-9.6,3.3-14.6c1.1-5.3,2-10.6,2.7-15.6c0.7-4.5,3.5-23.4,3.5-23.4h12.7
			c0,0,0.2,10.3,1.6,24.3c0.5,5.2,1.1,10.9,2.1,16.5c0.9,5.1,2.1,10.1,3.3,14.7C1153.7,209,1153.8,208.5,1153.9,208z"/>
	</g>
</g>
</svg>
