<svg width="120" height="48" viewBox="0 0 120 48" fill="none" xmlns="http://www.w3.org/2000/svg">
<path d="M57.5302 21.3022V13.6071H61.8018V14.4647H59.2369V17.0299H60.9519V17.8799H59.2369V20.4451H61.8018V21.3028H57.5302V21.3022Z" fill="white"/>
<path d="M63.5988 21.3022V20.0196C63.5988 19.5145 63.7415 19.1204 64.0279 18.837C64.3137 18.5537 64.7396 18.3787 65.3062 18.312C64.7396 18.2453 64.3137 18.0687 64.0279 17.7828C63.742 17.4969 63.5988 17.1012 63.5988 16.5967V15.3141H65.3062V17.0294C65.3062 17.2619 65.3903 17.4615 65.5586 17.6283C65.727 17.7951 65.9286 17.8788 66.1637 17.8788C66.3961 17.8788 66.5973 17.7951 66.7666 17.6283C66.9365 17.4615 67.0212 17.2614 67.0212 17.0294V15.3141H68.7285V16.5967C68.7285 17.1017 68.5863 17.4969 68.3015 17.7828C68.0172 18.0687 67.5903 18.2453 67.0212 18.312C67.5903 18.3787 68.0172 18.5542 68.3015 18.8391C68.5858 19.1234 68.7285 19.5171 68.7285 20.0196V21.3022H67.0212V19.5946C67.0212 19.3595 66.9365 19.1578 66.7666 18.9895C66.5968 18.8211 66.3961 18.737 66.1637 18.737C65.9286 18.737 65.727 18.8211 65.5586 18.9895C65.3903 19.1578 65.3062 19.3595 65.3062 19.5946V21.3022H63.5988Z" fill="white"/>
<path d="M70.5174 15.3146H72.2247V16.1722C72.2247 15.8838 72.297 15.6687 72.4412 15.5271C72.5854 15.3854 72.7989 15.3146 73.0822 15.3146H73.9397C74.4072 15.3146 74.8085 15.4834 75.1441 15.8217C75.4792 16.1599 75.647 16.5623 75.647 17.0299V19.5951C75.647 20.0627 75.4792 20.464 75.1441 20.7997C74.809 21.1349 74.4072 21.3027 73.9397 21.3027H72.2247V23.0103H70.5174V15.3146ZM72.2247 20.4445H73.0822C73.3146 20.4445 73.5158 20.3609 73.6851 20.1941C73.855 20.0273 73.9397 19.8271 73.9397 19.5951V17.0299C73.9397 16.7948 73.855 16.5936 73.6851 16.4268C73.5153 16.26 73.3146 16.1763 73.0822 16.1763C72.8471 16.1738 72.6455 16.2564 72.4771 16.4247C72.3088 16.5931 72.2247 16.7948 72.2247 17.0299V20.4445Z" fill="white"/>
<path d="M79.1432 15.3146H80.8582C81.3257 15.3146 81.727 15.4834 82.0626 15.8217C82.3977 16.1599 82.5655 16.5623 82.5655 17.0299V19.5951C82.5655 20.0575 82.3977 20.4574 82.0626 20.7956C81.7275 21.1338 81.3257 21.3027 80.8582 21.3027H79.1432C78.6757 21.3027 78.2744 21.1348 77.9388 20.7997C77.6037 20.4645 77.4359 20.0627 77.4359 19.5951V17.0299C77.4359 16.5572 77.6042 16.1527 77.9408 15.8176C78.2775 15.4819 78.6783 15.3146 79.1432 15.3146ZM79.1432 17.0299V19.5951C79.1432 19.825 79.2268 20.0242 79.3936 20.1925C79.5604 20.3609 79.7631 20.445 80.0007 20.445C80.2383 20.445 80.441 20.3609 80.6078 20.1925C80.7745 20.0242 80.8582 19.825 80.8582 19.5951V17.0299C80.8582 16.7948 80.7735 16.5931 80.6037 16.4247C80.4338 16.2564 80.2332 16.1722 80.0007 16.1722C79.7657 16.1722 79.564 16.2564 79.3957 16.4247C79.2268 16.5931 79.1432 16.7948 79.1432 17.0299Z" fill="white"/>
<path d="M60.9525 25.9194H62.6598V31.9075C62.6598 32.37 62.492 32.7698 62.1569 33.108C61.8218 33.4463 61.42 33.6151 60.9525 33.6151H59.2375C58.77 33.6151 58.3687 33.4473 58.0331 33.1121C57.698 32.777 57.5302 32.3751 57.5302 31.9075V25.9194H59.2375V31.9075C59.2375 32.1375 59.3211 32.3366 59.4879 32.505C59.6547 32.6733 59.8574 32.7575 60.095 32.7575C60.3326 32.7575 60.5353 32.6733 60.702 32.505C60.8688 32.3366 60.9525 32.1375 60.9525 31.9075V25.9194Z" fill="white"/>
<path d="M64.4487 33.6147V27.6271H66.156V28.4847C66.1909 28.1963 66.2796 27.9812 66.4223 27.8396C66.565 27.6979 66.762 27.6271 67.0135 27.6271H67.871C68.3385 27.6271 68.7398 27.7959 69.0754 28.1342C69.4105 28.4724 69.5783 28.8748 69.5783 29.3424V33.6147H67.871V29.3424C67.871 29.1073 67.7863 28.9056 67.6164 28.7372C67.4466 28.5689 67.2459 28.4847 67.0135 28.4847C66.7784 28.4847 66.5768 28.5689 66.4084 28.7372C66.2401 28.9056 66.156 29.1073 66.156 29.3424V33.6147H64.4487Z" fill="white"/>
<path d="M71.3667 26.7771V25.9194H73.074V26.7771H71.3667ZM71.3667 33.6146V27.627H73.074V33.6151H71.3667V33.6146Z" fill="white"/>
<path d="M78.2934 27.6271H80.0007V30.6932C80.0007 31.4893 79.7143 32.1755 79.1411 32.7514C78.5679 33.3272 77.8808 33.6152 77.0792 33.6152H74.8711V27.6271H76.5784V32.757H77.4359C77.6735 32.757 77.8762 32.6729 78.043 32.5045C78.2097 32.3362 78.2934 32.137 78.2934 31.9071V27.6271Z" fill="white"/>
<path d="M86.9187 31.0499H83.4964V31.9076C83.4964 32.1375 83.58 32.3366 83.7468 32.505C83.9136 32.6733 84.1163 32.7575 84.3539 32.7575H85.2114C85.7779 32.7575 86.0607 32.4742 86.0607 31.9081H86.9182C86.7848 33.0465 86.2157 33.6157 85.2109 33.6157H83.4959C83.0284 33.6157 82.6271 33.4478 82.2915 33.1127C81.9564 32.7775 81.7886 32.3757 81.7886 31.9081V29.3428C81.7886 28.8701 81.9569 28.4657 82.2935 28.1305C82.6302 27.7954 83.031 27.6276 83.4959 27.6276H85.2109C85.6784 27.6276 86.0797 27.7964 86.4153 28.1347C86.7504 28.4729 86.9182 28.8753 86.9182 29.3428V31.0499H86.9187ZM83.4969 30.1918H85.2119V29.3418C85.2119 29.1068 85.1272 28.905 84.9574 28.7367C84.7875 28.5684 84.5869 28.4842 84.3544 28.4842C84.1194 28.4842 83.9177 28.5684 83.7494 28.7367C83.5811 28.905 83.4969 29.1068 83.4969 29.3418V30.1918Z" fill="white"/>
<path d="M90.4149 33.6147H88.7076V27.6271H90.4149V29.3424C90.4816 28.7706 90.6581 28.3415 90.944 28.0556C91.2298 27.7698 91.6255 27.6271 92.1299 27.6271H92.9792V29.3424H91.2719C91.0369 29.3424 90.8352 29.426 90.6669 29.5928C90.4986 29.7596 90.4144 29.9593 90.4144 30.1918V33.6147H90.4149Z" fill="white"/>
<path d="M98.1909 29.3423H97.3416C97.2667 28.7705 96.9968 28.4846 96.5324 28.4846C96.2306 28.4846 96.0033 28.5442 95.8509 28.6627C95.6985 28.7818 95.6225 28.9589 95.6225 29.1939C95.6225 29.4398 96.0377 29.7847 96.869 30.2281C97.5448 30.5915 97.9343 30.8928 98.037 31.132C98.1396 31.3712 98.1914 31.6257 98.1914 31.8957C98.1914 32.3715 98.0236 32.7769 97.6885 33.1121C97.3534 33.4473 96.9516 33.6151 96.4841 33.6151H95.6266C94.4884 33.6151 93.9193 33.0459 93.9193 31.9075H94.7768C94.8435 32.4767 95.1109 32.761 95.5784 32.761C95.8801 32.761 96.1075 32.701 96.2594 32.5809C96.4118 32.4608 96.4877 32.2832 96.4877 32.0476C96.4877 31.8069 96.0736 31.4625 95.2453 31.0134C94.5669 30.6526 94.1759 30.3518 94.0733 30.1116C93.9701 29.8709 93.9188 29.6174 93.9188 29.35C93.9188 28.8716 94.0871 28.4646 94.4238 28.1295C94.7604 27.7943 95.1612 27.6265 95.6261 27.6265H96.4836C97.5525 27.627 98.1216 28.1987 98.1909 29.3423Z" fill="white"/>
<path d="M99.988 26.7771V25.9194H101.695V26.7771H99.988ZM99.988 33.6146V27.627H101.695V33.6151H99.988V33.6146Z" fill="white"/>
<path d="M104.35 25.9194H106.057V27.627H106.915V28.4847H106.057V31.9075C106.057 32.1826 106.148 32.3931 106.33 32.5388C106.511 32.6846 106.68 32.7575 106.835 32.7575H106.915V33.6151H106.057C105.587 33.6151 105.185 33.4473 104.851 33.1121C104.517 32.777 104.35 32.3751 104.35 31.9075V28.4847H103.492V27.627H104.35V25.9194Z" fill="white"/>
<path d="M112.126 30.1917V29.3418C112.126 29.1067 112.041 28.905 111.871 28.7366C111.702 28.5683 111.501 28.4841 111.268 28.4841H110.411C109.906 28.4841 109.623 28.77 109.561 29.3418H108.704C108.835 28.1982 109.404 27.6265 110.411 27.6265H112.126C112.593 27.6265 112.995 27.7953 113.33 28.1336C113.665 28.4718 113.833 28.8742 113.833 29.3418V33.6141H112.126V32.7564C112.059 33.3282 111.773 33.6141 111.268 33.6141H110.411C109.943 33.6141 109.542 33.4462 109.207 33.1111C108.871 32.7759 108.704 32.374 108.704 31.9065V31.8983C108.704 31.4307 108.872 31.0293 109.209 30.6937C109.545 30.3585 109.946 30.1907 110.411 30.1907H112.126V30.1917ZM112.126 31.0499H111.268C111.033 31.0499 110.832 31.1335 110.663 31.3003C110.495 31.4671 110.411 31.6673 110.411 31.8993V31.9075C110.411 32.1374 110.495 32.3366 110.661 32.5049C110.828 32.6733 111.031 32.7574 111.268 32.7574C111.506 32.7574 111.709 32.6733 111.876 32.5049C112.042 32.3366 112.126 32.1374 112.126 31.9075V31.0499Z" fill="white"/>
<path d="M119.894 29.3423H119.045C118.97 28.7705 118.7 28.4846 118.236 28.4846C117.934 28.4846 117.707 28.5442 117.554 28.6627C117.402 28.7818 117.326 28.9589 117.326 29.1939C117.326 29.4398 117.741 29.7847 118.572 30.2281C119.248 30.5915 119.638 30.8928 119.74 31.132C119.843 31.3712 119.895 31.6257 119.895 31.8957C119.895 32.3715 119.727 32.7769 119.392 33.1121C119.057 33.4473 118.655 33.6151 118.188 33.6151H117.33C116.192 33.6151 115.623 33.0459 115.623 31.9075H116.48C116.547 32.4767 116.814 32.761 117.282 32.761C117.584 32.761 117.811 32.701 117.963 32.5809C118.115 32.4608 118.191 32.2832 118.191 32.0476C118.191 31.8069 117.777 31.4625 116.949 31.0134C116.27 30.6526 115.879 30.3518 115.777 30.1116C115.674 29.8709 115.622 29.6174 115.622 29.35C115.622 28.8716 115.791 28.4646 116.127 28.1295C116.464 27.7943 116.865 27.6265 117.33 27.6265H118.187C119.255 27.627 119.825 28.1987 119.894 29.3423Z" fill="white"/>
<path d="M57.3608 41.4848V36.8943H59.1507C59.553 36.8943 59.8958 36.9579 60.1801 37.0847C60.4644 37.2115 60.683 37.3952 60.836 37.6354C60.9889 37.8761 61.0653 38.1625 61.0653 38.4946C61.0653 38.8267 60.9889 39.112 60.836 39.3502C60.683 39.5883 60.4644 39.7721 60.1801 39.9009C59.8958 40.0297 59.553 40.0944 59.1507 40.0944H57.721L58.0161 39.7859V41.4843H57.3608V41.4848ZM58.0166 39.8516L57.7216 39.5237H59.1312C59.551 39.5237 59.8686 39.4344 60.0852 39.2547C60.3018 39.0756 60.41 38.8221 60.41 38.4941C60.41 38.1661 60.3018 37.9126 60.0852 37.7335C59.8686 37.5543 59.551 37.4645 59.1312 37.4645H57.7216L58.0166 37.1365V39.8516Z" fill="white"/>
<path d="M67.0853 41.5238C66.7882 41.5238 66.527 41.4694 66.3017 41.3601C66.0764 41.2508 65.9019 41.0834 65.7772 40.8586C65.6525 40.6333 65.5905 40.3505 65.5905 40.0092V38.0085H66.2201V39.9368C66.2201 40.2776 66.3022 40.5337 66.4659 40.7041C66.6296 40.8745 66.8605 40.9597 67.1577 40.9597C67.3763 40.9597 67.5661 40.9151 67.7283 40.8253C67.89 40.7355 68.0147 40.6046 68.1019 40.4316C68.1891 40.2592 68.2328 40.0503 68.2328 39.8054V38.0085H68.8624V41.4843H68.2656V40.5466L68.3641 40.796C68.2502 41.028 68.0798 41.2071 67.8525 41.3339C67.6252 41.4607 67.3691 41.5238 67.0853 41.5238Z" fill="white"/>
<path d="M73.6815 41.4848V38.0086H74.285V38.9529L74.226 38.7168C74.322 38.4766 74.4841 38.2929 74.7115 38.1661C74.9388 38.0394 75.2185 37.9757 75.551 37.9757V38.5855C75.5248 38.5813 75.4997 38.5788 75.4756 38.5788C75.4515 38.5788 75.4284 38.5788 75.4068 38.5788C75.0702 38.5788 74.8033 38.6794 74.6068 38.8806C74.4102 39.0818 74.3117 39.3723 74.3117 39.7526V41.4838H73.6815V41.4848Z" fill="white"/>
<path d="M80.7237 41.4848L79.4321 38.0085H80.0289L81.1764 41.1563H80.8946L82.0883 38.0085H82.6194L83.7863 41.1563H83.5107L84.6844 38.0085H85.2483L83.95 41.4843H83.3465L82.2514 38.6116H82.4352L81.3272 41.4843H80.7237V41.4848Z" fill="white"/>
<path d="M90.9917 41.5238C90.6463 41.5238 90.3369 41.4473 90.0639 41.2943C89.7904 41.1414 89.5754 40.9304 89.4178 40.6615C89.2603 40.3926 89.1818 40.0877 89.1818 39.7469C89.1818 39.4015 89.2603 39.0966 89.4178 38.8323C89.5754 38.5679 89.7894 38.3591 90.0603 38.2061C90.3313 38.0532 90.6417 37.9767 90.9912 37.9767C91.3366 37.9767 91.646 38.0521 91.919 38.203C92.192 38.3539 92.4065 38.5628 92.5615 38.8292C92.7165 39.0961 92.7945 39.402 92.7945 39.7474C92.7945 40.0928 92.717 40.3987 92.5615 40.6656C92.406 40.9325 92.192 41.1424 91.919 41.2954C91.6465 41.4473 91.3371 41.5238 90.9917 41.5238ZM90.9917 40.973C91.2144 40.973 91.4146 40.9227 91.5916 40.8222C91.7686 40.7216 91.9072 40.5784 92.0078 40.3926C92.1084 40.2068 92.1586 39.9917 92.1586 39.7464C92.1586 39.4969 92.1084 39.2819 92.0078 39.1002C91.9072 38.919 91.7686 38.7779 91.5916 38.6773C91.4146 38.5767 91.2144 38.5264 90.9917 38.5264C90.769 38.5264 90.5699 38.5767 90.3949 38.6773C90.2199 38.7779 90.0803 38.919 89.9751 39.1002C89.8704 39.2819 89.8176 39.4969 89.8176 39.7464C89.8176 39.9912 89.8699 40.2068 89.9751 40.3926C90.0798 40.5784 90.2199 40.7216 90.3949 40.8222C90.5699 40.9227 90.769 40.973 90.9917 40.973Z" fill="white"/>
<path d="M97.2867 41.4848V38.0086H97.8902V38.9529L97.8312 38.7168C97.9271 38.4766 98.0893 38.2929 98.3166 38.1661C98.544 38.0394 98.8236 37.9757 99.1562 37.9757V38.5855C99.13 38.5813 99.1049 38.5788 99.0807 38.5788C99.0566 38.5788 99.0335 38.5788 99.012 38.5788C98.6753 38.5788 98.4085 38.6794 98.212 38.8806C98.0154 39.0818 97.9169 39.3723 97.9169 39.7526V41.4838H97.2867V41.4848Z" fill="white"/>
<path d="M105.142 41.5238C104.771 41.5238 104.444 41.4473 104.162 41.2944C103.88 41.1414 103.661 40.9315 103.506 40.6646C103.351 40.3983 103.273 40.0918 103.273 39.7464C103.273 39.401 103.349 39.0951 103.5 38.8282C103.651 38.5618 103.858 38.3529 104.123 38.2021C104.387 38.0512 104.686 37.9757 105.018 37.9757C105.354 37.9757 105.651 38.0501 105.909 38.1985C106.168 38.3473 106.369 38.5557 106.516 38.8246C106.662 39.0936 106.736 39.4072 106.736 39.7659C106.736 39.7921 106.735 39.8229 106.733 39.8578C106.731 39.8927 106.727 39.9256 106.723 39.9563H103.765V39.5037H106.395L106.139 39.6612C106.143 39.438 106.098 39.2393 106.002 39.0643C105.905 38.8893 105.773 38.7528 105.605 38.6542C105.437 38.5557 105.241 38.5069 105.018 38.5069C104.799 38.5069 104.605 38.5562 104.435 38.6542C104.264 38.7528 104.131 38.8903 104.035 39.0674C103.939 39.2445 103.891 39.4467 103.891 39.6741V39.7788C103.891 40.0108 103.944 40.2171 104.051 40.3983C104.159 40.5799 104.308 40.7206 104.5 40.8212C104.693 40.9218 104.913 40.9721 105.163 40.9721C105.368 40.9721 105.555 40.9372 105.723 40.8674C105.892 40.7976 106.039 40.6924 106.166 40.5527L106.513 40.9592C106.355 41.143 106.16 41.2826 105.926 41.3791C105.692 41.4761 105.431 41.5238 105.142 41.5238Z" fill="white"/>
<path d="M110.781 42.7962C110.637 42.7962 110.498 42.7787 110.365 42.7438C110.231 42.7089 110.119 42.6566 110.027 42.5863L110.23 42.1007C110.362 42.21 110.532 42.2645 110.742 42.2645C110.908 42.2645 111.036 42.2131 111.126 42.1105C111.215 42.0078 111.26 41.8559 111.26 41.6547V38.0086H111.89V41.6419C111.89 41.996 111.795 42.2768 111.605 42.4846C111.414 42.6925 111.14 42.7962 110.781 42.7962ZM111.575 37.3398C111.452 37.3398 111.351 37.3003 111.27 37.2218C111.189 37.1432 111.149 37.0467 111.149 36.9333C111.149 36.8153 111.189 36.7167 111.27 36.6382C111.351 36.5597 111.453 36.5201 111.575 36.5201C111.697 36.5201 111.799 36.5586 111.88 36.6351C111.961 36.7116 112.001 36.8065 112.001 36.9205C112.001 37.0385 111.961 37.1381 111.883 37.2187C111.804 37.2993 111.701 37.3398 111.575 37.3398Z" fill="white"/>
<path d="M118.197 41.5238C117.852 41.5238 117.542 41.4473 117.269 41.2943C116.996 41.1414 116.781 40.9304 116.623 40.6615C116.466 40.3926 116.387 40.0877 116.387 39.7469C116.387 39.4015 116.466 39.0966 116.623 38.8323C116.781 38.5679 116.995 38.3591 117.266 38.2061C117.537 38.0532 117.847 37.9767 118.197 37.9767C118.542 37.9767 118.852 38.0521 119.125 38.203C119.398 38.3539 119.612 38.5628 119.767 38.8292C119.922 39.0961 120 39.402 120 39.7474C120 40.0928 119.923 40.3987 119.767 40.6656C119.612 40.9325 119.398 41.1424 119.125 41.2954C118.852 41.4473 118.543 41.5238 118.197 41.5238ZM118.197 40.973C118.42 40.973 118.62 40.9227 118.797 40.8222C118.974 40.7216 119.113 40.5784 119.213 40.3926C119.314 40.2068 119.364 39.9917 119.364 39.7464C119.364 39.4969 119.314 39.2819 119.213 39.1002C119.113 38.919 118.974 38.7779 118.797 38.6773C118.62 38.5767 118.42 38.5264 118.197 38.5264C117.975 38.5264 117.775 38.5767 117.6 38.6773C117.425 38.7779 117.286 38.919 117.181 39.1002C117.076 39.2819 117.023 39.4969 117.023 39.7464C117.023 39.9912 117.075 40.2068 117.181 40.3926C117.285 40.5784 117.425 40.7216 117.6 40.8222C117.775 40.9227 117.974 40.973 118.197 40.973Z" fill="white"/>
<path d="M26.0828 9.38658L24.4463 10.4269C23.8715 10.7924 23.8715 11.6315 24.4463 11.9975L38.0216 20.6299L41.8206 23.0452C42.2993 23.3496 42.2999 24.0492 41.8206 24.3535L37.3688 27.1846C36.9157 27.4731 36.3369 27.4731 35.8832 27.1846L31.7984 24.587L18.1897 15.9336C17.4564 15.4671 16.5199 15.4671 15.7861 15.9326L15.5674 16.0712L14.0983 17.0073C13.5235 17.3728 13.5235 18.2119 14.0983 18.5779L27.6736 27.2103L32.5014 30.28L26.2778 34.2377L21.4499 31.168L6.63988 21.7508H6.63886L0.458273 17.7685C-0.0323149 17.4564 -0.0323149 16.7399 0.458273 16.4284L5.54684 13.1415L9.67065 10.5188L15.8949 6.56216L19.9684 3.97178L25.4593 0.479613C25.9062 0.195272 26.4769 0.195272 26.9238 0.479613L33.5067 4.66569L48.3983 14.0828L52.1973 16.4992C52.6761 16.8041 52.6761 17.5031 52.1973 17.8075L47.7446 20.6386C47.2914 20.927 46.7121 20.9265 46.2589 20.6386L42.0931 18.0405L28.488 9.38658C27.7541 8.92004 26.8166 8.92004 26.0828 9.38658Z" fill="white"/>
<path d="M45.7473 23.6355V30.1076C45.7473 33.7712 43.7968 37.1817 40.708 39.1516L36.0007 42.1536L33.5534 43.7139L27.3749 47.6546C26.7032 48.0832 25.8441 48.0832 25.1719 47.6546L18.9933 43.7139L11.7936 39.1223C8.70486 37.1525 6.83539 33.7424 6.83539 30.0788V23.7232C6.83539 23.464 7.12174 23.307 7.34034 23.4466L12.5454 26.7673C12.9113 27.0009 13.133 27.4048 13.133 27.839V29.6754C13.133 31.1264 13.9002 32.469 15.1497 33.2061L21.1856 36.765L21.1846 30.9662L26.2742 34.2126L32.5025 30.2795L32.4773 39.4021C32.4768 39.5047 32.6128 39.5417 32.6646 39.4529L34.6957 35.9699L36.6412 37.0729C36.7222 37.1186 36.8223 37.0606 36.8223 36.9672L36.8259 29.3218C36.8259 28.9913 36.9947 28.6843 37.2729 28.5067L38.5419 27.6973L45.3409 23.4127C45.5164 23.2998 45.7473 23.4266 45.7473 23.6355Z" fill="white"/>
<path d="M26.2716 34.2111L26.2706 47.9755C25.8888 47.9744 25.507 47.8682 25.1719 47.6542L18.9933 43.7129L11.7936 39.1214C8.70486 37.1515 6.83539 33.742 6.83539 30.0784V23.7233C6.83539 23.4641 7.12122 23.3065 7.33983 23.4467L12.5449 26.7669C12.9103 27.0004 13.1325 27.4049 13.1325 27.8391V29.675C13.1325 31.1264 13.8991 32.4691 15.1487 33.2061L21.1846 36.7655L21.1835 30.9668L26.2716 34.2111Z" fill="white"/>
</svg>
