<svg width="64" height="64" viewBox="0 0 64 64" fill="none" xmlns="http://www.w3.org/2000/svg">
<path fill-rule="evenodd" clip-rule="evenodd" d="M33 7C32.7348 7 32.4804 7.10536 32.2929 7.29289C32.1054 7.48043 32 7.73478 32 8V42C32 44.76 29.76 47 27 47C24.24 47 22 44.76 22 42C22 39.24 24.24 37 27 37C27.2652 37 27.5196 36.8946 27.7071 36.7071C27.8946 36.5196 28 36.2652 28 36V28C28 27.7348 27.8946 27.4804 27.7071 27.2929C27.5196 27.1054 27.2652 27 27 27C18.72 27 12 33.721 12 42C12 50.28 18.72 57 27 57C35.279 57 42 50.28 42 42V25.494C44.1993 26.4894 46.586 27.0029 49 27H51C51.2652 27 51.5196 26.8946 51.7071 26.7071C51.8946 26.5196 52 26.2652 52 26V18C52 17.7348 51.8946 17.4804 51.7071 17.2929C51.5196 17.1054 51.2652 17 51 17H49C45.137 17 42 13.863 42 10V8C42 7.73478 41.8946 7.48043 41.7071 7.29289C41.5196 7.10536 41.2652 7 41 7H33ZM34 9H40V10C40 14.967 44.033 19 49 19H50V25H49C46.269 25 43.708 24.27 41.501 22.991C41.349 22.903 41.1764 22.8566 41.0007 22.8564C40.825 22.8563 40.6524 22.9025 40.5003 22.9903C40.3481 23.0781 40.2217 23.2044 40.1339 23.3566C40.0461 23.5087 39.9999 23.6813 40 23.857V42C40 49.175 34.175 55 27 55C19.825 55 14 49.175 14 42C14 35.162 19.292 29.55 26 29.038V35.071C22.61 35.557 20 38.476 20 42.001C20 45.863 23.137 49.001 27 49.001C30.863 49.001 34 45.863 34 42.001V9Z" fill="black"/>
</svg>
